# Blender 4.1.1
# www.blender.org
mtllib press.mtl
o Agility_Forge_Ram_Tool_Rack.002
v 2.539999 6.540333 2.540001
v 2.539999 6.540333 -2.539999
v -2.540001 6.540333 -2.539999
v -2.540001 6.540333 2.540001
v -2.540001 -0.762167 0.952502
v -2.535177 -0.762167 1.007635
v -2.520853 -0.762167 1.061093
v -2.497464 -0.762167 1.111252
v -2.465720 -0.762167 1.156587
v -2.426586 -0.762167 1.195721
v -2.381251 -0.762167 1.227465
v -2.331092 -0.762167 1.250854
v -2.277634 -0.762167 1.265179
v -2.222501 -0.762167 1.270002
v -2.222501 4.000334 1.270002
v -2.277634 4.000334 1.265178
v -2.331092 4.000334 1.250854
v -2.381251 4.000334 1.227465
v -2.426586 4.000334 1.195720
v -2.465720 4.000334 1.156587
v -2.497464 4.000334 1.111251
v -2.520853 4.000334 1.061093
v -2.535177 4.000334 1.007635
v -2.540001 4.000334 0.952501
v -2.535177 0.428458 1.007635
v -2.535177 1.619084 1.007635
v -2.535177 2.809709 1.007635
v -2.520853 0.428458 1.061093
v -2.520853 1.619084 1.061093
v -2.520853 2.809709 1.061093
v -2.497464 0.428458 1.111252
v -2.497464 1.619084 1.111252
v -2.497464 2.809709 1.111251
v -2.465720 0.428458 1.156587
v -2.465720 1.619084 1.156587
v -2.465720 2.809709 1.156587
v -2.426586 0.428458 1.195721
v -2.426586 1.619084 1.195720
v -2.426586 2.809709 1.195720
v -2.381251 0.428458 1.227465
v -2.381251 1.619084 1.227465
v -2.381251 2.809709 1.227465
v -2.331092 0.428458 1.250854
v -2.331092 1.619084 1.250854
v -2.331092 2.809709 1.250854
v -2.277634 0.428458 1.265179
v -2.277634 1.619084 1.265178
v -2.277634 2.809709 1.265178
v -2.540001 -0.762167 -0.952498
v -2.535177 -0.817300 -0.952498
v -2.520853 -0.870758 -0.952498
v -2.497464 -0.920917 -0.952498
v -2.465720 -0.966252 -0.952498
v -2.426586 -1.005386 -0.952498
v -2.381251 -1.037129 -0.952498
v -2.331092 -1.060519 -0.952498
v -2.277634 -1.074843 -0.952498
v -2.222501 -1.079666 -0.952498
v -2.222501 -1.079666 0.952502
v -2.277634 -1.074843 0.952502
v -2.331092 -1.060519 0.952502
v -2.381251 -1.037129 0.952502
v -2.426586 -1.005386 0.952502
v -2.465720 -0.966252 0.952502
v -2.497464 -0.920917 0.952502
v -2.520853 -0.870758 0.952502
v -2.535177 -0.817300 0.952502
v -2.535177 -0.817300 0.000002
v -2.520853 -0.870758 0.000002
v -2.497464 -0.920917 0.000002
v -2.465720 -0.966252 0.000002
v -2.426586 -1.005386 0.000002
v -2.381251 -1.037129 0.000002
v -2.331092 -1.060519 0.000002
v -2.277634 -1.074843 0.000002
v -2.222501 -0.762167 -1.269998
v -2.277634 -0.762167 -1.265174
v -2.331092 -0.762167 -1.250851
v -2.381251 -0.762167 -1.227461
v -2.426586 -0.762167 -1.195718
v -2.465720 -0.762167 -1.156583
v -2.497464 -0.762167 -1.111248
v -2.520853 -0.762167 -1.061089
v -2.535177 -0.762167 -1.007632
v -2.540001 4.000334 -0.952498
v -2.535177 4.000334 -1.007632
v -2.520853 4.000334 -1.061090
v -2.497464 4.000334 -1.111248
v -2.465720 4.000334 -1.156584
v -2.426586 4.000334 -1.195718
v -2.381251 4.000334 -1.227462
v -2.331092 4.000334 -1.250851
v -2.277634 4.000334 -1.265175
v -2.222501 4.000334 -1.269998
v -2.277634 0.428458 -1.265174
v -2.277634 1.619084 -1.265175
v -2.277634 2.809709 -1.265175
v -2.331092 0.428458 -1.250851
v -2.331092 1.619084 -1.250851
v -2.331092 2.809709 -1.250851
v -2.381251 0.428458 -1.227461
v -2.381251 1.619084 -1.227461
v -2.381251 2.809709 -1.227461
v -2.426586 0.428458 -1.195718
v -2.426586 1.619084 -1.195718
v -2.426586 2.809709 -1.195718
v -2.465720 0.428458 -1.156583
v -2.465720 1.619084 -1.156583
v -2.465720 2.809709 -1.156584
v -2.497464 0.428458 -1.111248
v -2.497464 1.619084 -1.111248
v -2.497464 2.809709 -1.111248
v -2.520853 0.428458 -1.061089
v -2.520853 1.619084 -1.061089
v -2.520853 2.809709 -1.061090
v -2.535177 0.428458 -1.007632
v -2.535177 1.619084 -1.007632
v -2.535177 2.809709 -1.007632
v -2.222501 -0.817300 -1.265174
v -2.222501 -0.870758 -1.250850
v -2.222501 -0.920917 -1.227461
v -2.222501 -0.966252 -1.195717
v -2.222501 -1.005386 -1.156583
v -2.222501 -1.037129 -1.111248
v -2.222501 -1.060519 -1.061089
v -2.222501 -1.074843 -1.007632
v -2.353394 -0.808374 -1.238047
v -2.451782 -0.807013 -1.167498
v -2.277843 -0.966275 -1.189317
v -2.252672 -1.066127 -1.039123
v -2.277843 -0.998985 -1.156606
v -2.331142 -0.989836 -1.145293
v -2.381151 -0.973793 -1.128141
v -2.426356 -0.951341 -1.105671
v -2.465389 -0.923161 -1.078563
v -2.497066 -0.890106 -1.047636
v -2.520430 -0.853177 -1.013830
v -2.534771 -0.813493 -0.978166
v -2.534771 -0.787834 -1.003824
v -2.520430 -0.823499 -1.043509
v -2.497066 -0.857306 -1.080438
v -2.465389 -0.888231 -1.113493
v -2.426356 -0.915340 -1.141673
v -2.381151 -0.937810 -1.164124
v -2.331142 -0.954961 -1.180168
v -2.516542 -0.790317 -1.068916
v -2.492770 -0.820633 -1.108519
v -2.460814 -0.849178 -1.143397
v -2.421641 -0.875089 -1.172494
v -2.376438 -0.897580 -1.194929
v -2.326574 -0.915970 -1.210023
v -2.273558 -0.929703 -1.217320
v -2.484289 -0.781038 -1.131151
v -2.412333 -0.831630 -1.197334
v -2.367135 -0.854144 -1.219757
v -2.317557 -0.873872 -1.234087
v -2.265101 -0.890219 -1.239890
v -2.398551 -0.785736 -1.215665
v -2.304272 -0.829608 -1.251782
v -2.252672 -0.848792 -1.256459
v -2.287218 -0.784772 -1.262509
v -2.236645 -0.806647 -1.266548
v -2.273558 -1.026988 -1.120035
v -2.326574 -1.019693 -1.106302
v -2.376438 -1.004598 -1.087911
v -2.421641 -0.982162 -1.065420
v -2.460814 -0.953066 -1.039509
v -2.492770 -0.918187 -1.010964
v -2.516542 -0.878586 -0.980648
v -2.265101 -1.049559 -1.080549
v -2.317557 -1.043756 -1.064204
v -2.367135 -1.029425 -1.044475
v -2.412333 -1.007004 -1.021962
v -2.451782 -0.977167 -0.997345
v -2.484289 -0.940820 -0.971370
v -2.304272 -1.061452 -1.019939
v -2.353394 -1.047716 -0.998704
v -2.398551 -1.025334 -0.976067
v -2.236645 -1.076218 -0.996979
v -2.287218 -1.072179 -0.975103
v -2.222501 -1.074843 1.007636
v -2.222501 -1.060519 1.061093
v -2.222501 -1.037129 1.111252
v -2.222501 -1.005386 1.156587
v -2.222501 -0.966252 1.195721
v -2.222501 -0.920917 1.227465
v -2.222501 -0.870758 1.250854
v -2.222501 -0.817300 1.265179
v -2.353394 -1.047716 0.998708
v -2.451782 -0.977167 0.997348
v -2.277843 -0.998985 1.156610
v -2.252672 -0.848791 1.256463
v -2.277843 -0.966275 1.189321
v -2.331142 -0.954961 1.180172
v -2.381151 -0.937810 1.164128
v -2.426356 -0.915340 1.141677
v -2.465389 -0.888231 1.113497
v -2.497066 -0.857306 1.080442
v -2.520430 -0.823498 1.043513
v -2.534771 -0.787834 1.003828
v -2.534771 -0.813493 0.978170
v -2.520430 -0.853177 1.013834
v -2.497066 -0.890106 1.047640
v -2.465389 -0.923161 1.078566
v -2.426356 -0.951341 1.105675
v -2.381151 -0.973793 1.128145
v -2.331142 -0.989836 1.145297
v -2.516542 -0.878586 0.980652
v -2.492770 -0.918187 1.010967
v -2.460814 -0.953065 1.039513
v -2.421641 -0.982162 1.065424
v -2.376438 -1.004597 1.087914
v -2.326574 -1.019693 1.106305
v -2.273558 -1.026988 1.120039
v -2.484289 -0.940820 0.971373
v -2.412333 -1.007004 1.021966
v -2.367135 -1.029425 1.044479
v -2.317557 -1.043756 1.064208
v -2.265101 -1.049559 1.080554
v -2.398551 -1.025334 0.976071
v -2.304272 -1.061452 1.019943
v -2.252672 -1.066127 1.039127
v -2.287218 -1.072178 0.975107
v -2.236645 -1.076217 0.996983
v -2.273558 -0.929703 1.217324
v -2.326574 -0.915970 1.210027
v -2.376438 -0.897580 1.194933
v -2.421641 -0.875088 1.172498
v -2.460814 -0.849177 1.143401
v -2.492770 -0.820633 1.108523
v -2.516542 -0.790317 1.068920
v -2.265101 -0.890219 1.239894
v -2.317557 -0.873872 1.234091
v -2.367135 -0.854144 1.219761
v -2.412333 -0.831630 1.197338
v -2.451782 -0.807013 1.167502
v -2.484289 -0.781038 1.131155
v -2.304272 -0.829608 1.251787
v -2.353394 -0.808374 1.238051
v -2.398551 -0.785736 1.215669
v -2.236645 -0.806647 1.266552
v -2.287218 -0.784772 1.262513
v 2.222499 -0.762167 1.270002
v 2.222499 4.000334 1.270002
v 2.222499 -1.079666 0.952502
v 2.222499 -1.074843 1.007636
v 2.222499 -1.060519 1.061093
v 2.222499 -1.037129 1.111252
v 2.222499 -1.005386 1.156587
v 2.222499 -0.966252 1.195721
v 2.222499 -0.920917 1.227465
v 2.222499 -0.870758 1.250854
v 2.222499 -0.817300 1.265179
v -1.111251 -0.817300 1.265179
v -0.000001 -0.817300 1.265179
v 1.111249 -0.817300 1.265179
v -1.111251 -0.870758 1.250854
v -0.000001 -0.870758 1.250854
v 1.111249 -0.870758 1.250854
v -1.111251 -0.920917 1.227465
v -0.000001 -0.920917 1.227465
v 1.111249 -0.920917 1.227465
v -1.111251 -0.966252 1.195721
v -0.000001 -0.966252 1.195721
v 1.111249 -0.966252 1.195721
v -1.111251 -1.005386 1.156587
v -0.000001 -1.005386 1.156587
v 1.111249 -1.005386 1.156587
v -1.111251 -1.037129 1.111252
v -0.000001 -1.037129 1.111252
v 1.111249 -1.037129 1.111252
v -1.111251 -1.060519 1.061093
v -0.000001 -1.060519 1.061093
v 1.111249 -1.060519 1.061093
v -1.111251 -1.074843 1.007636
v -0.000001 -1.074843 1.007636
v 1.111249 -1.074843 1.007636
v 2.222499 -1.079666 -0.952498
v 2.222499 -0.762167 -1.269998
v 2.222499 -0.817300 -1.265174
v 2.222499 -0.870758 -1.250850
v 2.222499 -0.920917 -1.227461
v 2.222499 -0.966252 -1.195717
v 2.222499 -1.005386 -1.156583
v 2.222499 -1.037129 -1.111248
v 2.222499 -1.060519 -1.061089
v 2.222499 -1.074843 -1.007632
v -1.111251 -1.074843 -1.007632
v -0.000001 -1.074843 -1.007632
v 1.111249 -1.074843 -1.007632
v -1.111251 -1.060519 -1.061089
v -0.000001 -1.060519 -1.061089
v 1.111249 -1.060519 -1.061089
v -1.111251 -1.037129 -1.111248
v -0.000001 -1.037129 -1.111248
v 1.111249 -1.037129 -1.111248
v -1.111251 -1.005386 -1.156583
v -0.000001 -1.005386 -1.156583
v 1.111249 -1.005386 -1.156583
v -1.111251 -0.966252 -1.195717
v -0.000001 -0.966252 -1.195717
v 1.111249 -0.966252 -1.195717
v -1.111251 -0.920917 -1.227461
v -0.000001 -0.920917 -1.227461
v 1.111249 -0.920917 -1.227461
v -1.111251 -0.870758 -1.250850
v -0.000001 -0.870758 -1.250850
v 1.111249 -0.870758 -1.250850
v -1.111251 -0.817300 -1.265174
v -0.000001 -0.817300 -1.265174
v 1.111249 -0.817300 -1.265174
v 2.222499 4.000334 -1.269998
v 2.539999 -0.762167 -0.952498
v 2.535176 -0.762167 -1.007632
v 2.520852 -0.762167 -1.061089
v 2.497462 -0.762167 -1.111248
v 2.465718 -0.762167 -1.156583
v 2.426584 -0.762167 -1.195718
v 2.381249 -0.762167 -1.227461
v 2.331090 -0.762167 -1.250851
v 2.277632 -0.762167 -1.265174
v 2.277632 4.000334 -1.265175
v 2.331090 4.000334 -1.250851
v 2.381249 4.000334 -1.227462
v 2.426584 4.000334 -1.195718
v 2.465718 4.000334 -1.156584
v 2.497462 4.000334 -1.111248
v 2.520852 4.000334 -1.061090
v 2.535176 4.000334 -1.007632
v 2.539999 4.000334 -0.952498
v 2.535176 0.428458 -1.007632
v 2.535176 1.619084 -1.007632
v 2.535176 2.809709 -1.007632
v 2.520852 0.428458 -1.061089
v 2.520852 1.619084 -1.061089
v 2.520852 2.809709 -1.061090
v 2.497462 0.428458 -1.111248
v 2.497462 1.619084 -1.111248
v 2.497462 2.809709 -1.111248
v 2.465718 0.428458 -1.156583
v 2.465718 1.619084 -1.156583
v 2.465718 2.809709 -1.156584
v 2.426584 0.428458 -1.195718
v 2.426584 1.619084 -1.195718
v 2.426584 2.809709 -1.195718
v 2.381249 0.428458 -1.227461
v 2.381249 1.619084 -1.227461
v 2.381249 2.809709 -1.227461
v 2.331090 0.428458 -1.250851
v 2.331090 1.619084 -1.250851
v 2.331090 2.809709 -1.250851
v 2.277632 0.428458 -1.265174
v 2.277632 1.619084 -1.265175
v 2.277632 2.809709 -1.265175
v 2.539999 -0.762167 0.952502
v 2.535176 -0.817300 0.952502
v 2.520852 -0.870758 0.952502
v 2.497462 -0.920917 0.952502
v 2.465718 -0.966252 0.952502
v 2.426584 -1.005386 0.952502
v 2.381249 -1.037129 0.952502
v 2.331090 -1.060519 0.952502
v 2.277632 -1.074843 0.952502
v 2.277632 -1.074843 -0.952498
v 2.331090 -1.060519 -0.952498
v 2.381249 -1.037129 -0.952498
v 2.426584 -1.005386 -0.952498
v 2.465718 -0.966252 -0.952498
v 2.497462 -0.920917 -0.952498
v 2.520852 -0.870758 -0.952498
v 2.535176 -0.817300 -0.952498
v 2.535176 -0.817300 0.000002
v 2.520852 -0.870758 0.000002
v 2.497462 -0.920917 0.000002
v 2.465718 -0.966252 0.000002
v 2.426584 -1.005386 0.000002
v 2.381249 -1.037129 0.000002
v 2.331090 -1.060519 0.000002
v 2.277632 -1.074843 0.000002
v 2.277632 -0.762167 1.265179
v 2.331090 -0.762167 1.250854
v 2.381249 -0.762167 1.227465
v 2.426584 -0.762167 1.195721
v 2.465718 -0.762167 1.156587
v 2.497462 -0.762167 1.111252
v 2.520852 -0.762167 1.061093
v 2.535176 -0.762167 1.007635
v 2.539999 4.000334 0.952501
v 2.535176 4.000334 1.007635
v 2.520852 4.000334 1.061093
v 2.497462 4.000334 1.111251
v 2.465718 4.000334 1.156587
v 2.426584 4.000334 1.195720
v 2.381249 4.000334 1.227465
v 2.331090 4.000334 1.250854
v 2.277632 4.000334 1.265178
v 2.277632 0.428458 1.265179
v 2.277632 1.619084 1.265178
v 2.277632 2.809709 1.265178
v 2.331090 0.428458 1.250854
v 2.331090 1.619084 1.250854
v 2.331090 2.809709 1.250854
v 2.381249 0.428458 1.227465
v 2.381249 1.619084 1.227465
v 2.381249 2.809709 1.227465
v 2.426584 0.428458 1.195721
v 2.426584 1.619084 1.195720
v 2.426584 2.809709 1.195720
v 2.465718 0.428458 1.156587
v 2.465718 1.619084 1.156587
v 2.465718 2.809709 1.156587
v 2.497462 0.428458 1.111252
v 2.497462 1.619084 1.111252
v 2.497462 2.809709 1.111251
v 2.520852 0.428458 1.061093
v 2.520852 1.619084 1.061093
v 2.520852 2.809709 1.061093
v 2.535176 0.428458 1.007635
v 2.535176 1.619084 1.007635
v 2.535176 2.809709 1.007635
v 2.277841 -0.966275 1.189321
v 2.451781 -0.807013 1.167502
v 2.353392 -0.808374 1.238051
v 2.277841 -0.998985 1.156610
v 2.331140 -0.989836 1.145297
v 2.381150 -0.973793 1.128145
v 2.426355 -0.951341 1.105675
v 2.465387 -0.923161 1.078566
v 2.497065 -0.890106 1.047640
v 2.520428 -0.853177 1.013834
v 2.534770 -0.813493 0.978170
v 2.534770 -0.787834 1.003828
v 2.520428 -0.823498 1.043513
v 2.497065 -0.857306 1.080442
v 2.465387 -0.888231 1.113497
v 2.426355 -0.915340 1.141677
v 2.381150 -0.937810 1.164128
v 2.331140 -0.954961 1.180172
v 2.516541 -0.790317 1.068920
v 2.492769 -0.820633 1.108523
v 2.460812 -0.849177 1.143401
v 2.421640 -0.875088 1.172498
v 2.376437 -0.897580 1.194933
v 2.326573 -0.915970 1.210027
v 2.273557 -0.929703 1.217324
v 2.484288 -0.781038 1.131155
v 2.412331 -0.831630 1.197338
v 2.367133 -0.854144 1.219761
v 2.317555 -0.873872 1.234091
v 2.265100 -0.890219 1.239894
v 2.398549 -0.785736 1.215669
v 2.304271 -0.829608 1.251787
v 2.252670 -0.848791 1.256463
v 2.287216 -0.784772 1.262513
v 2.236643 -0.806647 1.266552
v 2.273557 -1.026988 1.120039
v 2.326573 -1.019693 1.106305
v 2.376437 -1.004597 1.087914
v 2.421640 -0.982162 1.065424
v 2.460812 -0.953065 1.039513
v 2.492769 -0.918187 1.010967
v 2.516541 -0.878586 0.980652
v 2.265100 -1.049559 1.080554
v 2.317555 -1.043756 1.064208
v 2.367133 -1.029425 1.044479
v 2.412331 -1.007004 1.021966
v 2.451781 -0.977167 0.997348
v 2.484288 -0.940820 0.971373
v 2.252670 -1.066127 1.039127
v 2.304271 -1.061452 1.019943
v 2.353392 -1.047716 0.998708
v 2.398549 -1.025334 0.976071
v 2.236643 -1.076217 0.996983
v 2.287216 -1.072178 0.975107
v 2.277841 -0.998985 -1.156606
v 2.451781 -0.977167 -0.997345
v 2.353392 -1.047716 -0.998704
v 2.277841 -0.966275 -1.189317
v 2.331140 -0.954961 -1.180168
v 2.381150 -0.937810 -1.164124
v 2.426355 -0.915340 -1.141673
v 2.465387 -0.888231 -1.113493
v 2.497065 -0.857306 -1.080438
v 2.520428 -0.823499 -1.043509
v 2.534770 -0.787834 -1.003824
v 2.534770 -0.813493 -0.978166
v 2.520428 -0.853177 -1.013830
v 2.497065 -0.890106 -1.047636
v 2.465387 -0.923161 -1.078563
v 2.426355 -0.951341 -1.105671
v 2.381150 -0.973793 -1.128141
v 2.331140 -0.989836 -1.145293
v 2.516541 -0.878586 -0.980648
v 2.492769 -0.918187 -1.010964
v 2.460812 -0.953066 -1.039509
v 2.421640 -0.982162 -1.065420
v 2.376437 -1.004598 -1.087911
v 2.326573 -1.019693 -1.106302
v 2.273557 -1.026988 -1.120035
v 2.484288 -0.940820 -0.971370
v 2.412331 -1.007004 -1.021962
v 2.367133 -1.029425 -1.044475
v 2.317555 -1.043756 -1.064204
v 2.265100 -1.049559 -1.080549
v 2.398549 -1.025334 -0.976067
v 2.304271 -1.061452 -1.019939
v 2.252670 -1.066127 -1.039123
v 2.287216 -1.072179 -0.975103
v 2.236643 -1.076218 -0.996979
v 2.273557 -0.929703 -1.217320
v 2.326573 -0.915970 -1.210023
v 2.376437 -0.897580 -1.194929
v 2.421640 -0.875089 -1.172494
v 2.460812 -0.849178 -1.143397
v 2.492769 -0.820633 -1.108519
v 2.516541 -0.790317 -1.068916
v 2.265100 -0.890219 -1.239890
v 2.317555 -0.873872 -1.234087
v 2.367133 -0.854144 -1.219757
v 2.412331 -0.831630 -1.197334
v 2.451781 -0.807013 -1.167498
v 2.484288 -0.781038 -1.131151
v 2.252670 -0.848792 -1.256459
v 2.304271 -0.829608 -1.251782
v 2.353392 -0.808374 -1.238047
v 2.398549 -0.785736 -1.215665
v 2.236643 -0.806647 -1.266548
v 2.287216 -0.784772 -1.262509
v -2.540001 4.000334 2.540001
v -2.540001 4.000334 -2.539998
v 2.539999 4.000334 2.540001
v 2.539999 4.000334 -2.539998
vn -0.9848 -0.0000 0.1737
vn -0.9848 -0.0000 0.1736
vn -1.0000 -0.0000 -0.0000
vn -0.9397 -0.0000 0.3420
vn -0.8660 -0.0000 0.5000
vn -0.7660 -0.0000 0.6428
vn -0.6428 -0.0000 0.7660
vn -0.5000 -0.0000 0.8660
vn -0.3420 -0.0000 0.9397
vn -0.1737 -0.0000 0.9848
vn -0.1736 -0.0000 0.9848
vn -0.0000 -0.0000 1.0000
vn -0.9848 -0.1737 -0.0000
vn -0.9397 -0.3420 -0.0000
vn -0.8660 -0.5000 -0.0000
vn -0.7660 -0.6428 -0.0000
vn -0.6428 -0.7660 -0.0000
vn -0.5000 -0.8660 -0.0000
vn -0.3420 -0.9397 -0.0000
vn -0.3422 -0.9396 -0.0000
vn -0.1736 -0.9848 -0.0000
vn -0.0000 -1.0000 -0.0000
vn -0.9848 -0.1736 -0.0000
vn -0.1736 -0.0000 -0.9848
vn -0.1737 -0.0000 -0.9848
vn -0.0000 -0.0000 -1.0000
vn -0.3420 -0.0000 -0.9397
vn -0.5000 -0.0000 -0.8660
vn -0.6428 -0.0000 -0.7660
vn -0.7660 -0.0000 -0.6428
vn -0.8660 -0.0000 -0.5000
vn -0.9397 -0.0000 -0.3421
vn -0.9397 -0.0000 -0.3420
vn -0.9848 -0.0000 -0.1736
vn -0.9835 -0.0808 -0.1617
vn -0.9835 -0.1616 -0.0808
vn -0.9261 -0.3667 -0.0887
vn -0.8512 -0.4914 -0.1841
vn -0.8245 -0.5627 -0.0595
vn -0.7507 -0.6012 -0.2740
vn -0.7221 -0.6772 -0.1413
vn -0.6273 -0.6928 -0.3556
vn -0.5978 -0.7712 -0.2188
vn -0.4852 -0.7634 -0.4264
vn -0.4556 -0.8418 -0.2896
vn -0.3279 -0.8111 -0.4844
vn -0.2994 -0.8869 -0.3518
vn -0.1608 -0.8341 -0.5277
vn -0.1342 -0.9052 -0.4033
vn -0.0000 -0.8660 -0.5000
vn -0.0000 -0.9397 -0.3420
vn -0.9261 -0.0887 -0.3667
vn -0.9384 -0.1931 -0.2866
vn -0.8512 -0.1842 -0.4914
vn -0.8648 -0.2996 -0.4029
vn -0.7505 -0.2741 -0.6013
vn -0.7650 -0.3971 -0.5071
vn -0.6269 -0.3558 -0.6931
vn -0.6422 -0.4824 -0.5958
vn -0.4852 -0.4264 -0.7634
vn -0.4997 -0.5532 -0.6665
vn -0.3277 -0.4844 -0.8111
vn -0.3422 -0.6072 -0.7171
vn -0.1608 -0.5277 -0.8341
vn -0.1743 -0.6429 -0.7459
vn -0.0000 -0.6428 -0.7660
vn -0.0000 -0.7660 -0.6428
vn -0.8245 -0.0594 -0.5627
vn -0.7221 -0.1413 -0.6772
vn -0.5545 -0.0743 -0.8289
vn -0.4123 -0.1455 -0.8994
vn -0.2038 -0.0712 -0.9764
vn -0.0446 -0.1401 -0.9891
vn -0.0000 -0.1737 -0.9848
vn -0.0951 -0.2728 -0.9574
vn -0.0000 -0.3420 -0.9397
vn -0.1342 -0.4033 -0.9052
vn -0.0000 -0.5000 -0.8660
vn -0.1743 -0.7459 -0.6428
vn -0.3422 -0.7171 -0.6072
vn -0.5000 -0.6664 -0.5531
vn -0.6418 -0.5960 -0.4826
vn -0.7650 -0.5071 -0.3971
vn -0.8648 -0.4030 -0.2996
vn -0.9383 -0.2867 -0.1932
vn -0.0950 -0.9574 -0.2728
vn -0.0000 -0.9848 -0.1737
vn -0.0446 -0.9891 -0.1401
vn -0.2038 -0.9764 -0.0712
vn -0.2576 -0.9426 -0.2124
vn -0.4123 -0.8994 -0.1455
vn -0.5545 -0.8289 -0.0742
vn -0.5976 -0.2187 -0.7714
vn -0.4559 -0.2894 -0.8417
vn -0.2994 -0.3518 -0.8869
vn -0.2576 -0.2124 -0.9426
vn -0.9835 -0.1617 0.0808
vn -0.9835 -0.0809 0.1617
vn -0.9261 -0.0887 0.3667
vn -0.8512 -0.1842 0.4914
vn -0.8245 -0.0595 0.5627
vn -0.7505 -0.2741 0.6013
vn -0.7221 -0.1413 0.6772
vn -0.6273 -0.3556 0.6928
vn -0.5979 -0.2188 0.7711
vn -0.4852 -0.4263 0.7634
vn -0.4556 -0.2896 0.8418
vn -0.3278 -0.4844 0.8111
vn -0.2995 -0.3518 0.8869
vn -0.1608 -0.5277 0.8341
vn -0.1341 -0.4033 0.9052
vn -0.0000 -0.5000 0.8660
vn -0.0000 -0.3420 0.9397
vn -0.9261 -0.3667 0.0887
vn -0.9384 -0.2866 0.1932
vn -0.8512 -0.4914 0.1842
vn -0.8648 -0.4030 0.2997
vn -0.7506 -0.6013 0.2741
vn -0.7649 -0.5071 0.3971
vn -0.6273 -0.6928 0.3556
vn -0.6420 -0.5958 0.4824
vn -0.4847 -0.7636 0.4265
vn -0.4997 -0.6665 0.5532
vn -0.3279 -0.8111 0.4844
vn -0.3423 -0.7171 0.6072
vn -0.1608 -0.8341 0.5277
vn -0.1743 -0.7459 0.6429
vn -0.0000 -0.7660 0.6428
vn -0.0000 -0.6428 0.7660
vn -0.8245 -0.5627 0.0594
vn -0.7221 -0.6772 0.1413
vn -0.5545 -0.8289 0.0743
vn -0.4123 -0.8994 0.1455
vn -0.2039 -0.9764 0.0712
vn -0.0445 -0.9891 0.1401
vn -0.0000 -0.9848 0.1737
vn -0.0951 -0.9574 0.2728
vn -0.0000 -0.9397 0.3420
vn -0.1342 -0.9052 0.4033
vn -0.0000 -0.8660 0.5000
vn -0.1743 -0.6428 0.7459
vn -0.3422 -0.6072 0.7171
vn -0.4996 -0.5533 0.6666
vn -0.6421 -0.4824 0.5958
vn -0.7650 -0.3971 0.5071
vn -0.8647 -0.2997 0.4030
vn -0.9384 -0.1932 0.2867
vn -0.0951 -0.2728 0.9574
vn -0.0000 -0.1737 0.9848
vn -0.0446 -0.1401 0.9891
vn -0.2038 -0.0712 0.9764
vn -0.2576 -0.2124 0.9426
vn -0.4123 -0.1455 0.8994
vn -0.5545 -0.0742 0.8289
vn -0.5976 -0.7714 0.2187
vn -0.4559 -0.8417 0.2893
vn -0.2994 -0.8869 0.3518
vn -0.2577 -0.9426 0.2124
vn -0.0000 -0.1736 0.9848
vn -0.0000 -0.6428 0.7661
vn -0.0000 -0.9848 0.1736
vn -0.0000 -0.9848 -0.1736
vn -0.0000 -0.7661 -0.6428
vn -0.0000 -0.1736 -0.9848
vn 0.0001 -0.0000 -1.0000
vn 0.9848 -0.0000 -0.1737
vn 0.9848 -0.0000 -0.1736
vn 1.0000 -0.0000 -0.0000
vn 0.9397 -0.0000 -0.3420
vn 0.8660 -0.0000 -0.5000
vn 0.7660 -0.0000 -0.6428
vn 0.6428 -0.0000 -0.7660
vn 0.5000 -0.0000 -0.8660
vn 0.3420 -0.0000 -0.9397
vn 0.1737 -0.0000 -0.9848
vn 0.1736 -0.0000 -0.9848
vn 0.9848 -0.1737 -0.0000
vn 0.9397 -0.3420 -0.0000
vn 0.8660 -0.5000 -0.0000
vn 0.7660 -0.6428 -0.0000
vn 0.6428 -0.7660 -0.0000
vn 0.5000 -0.8660 -0.0000
vn 0.3420 -0.9397 -0.0000
vn 0.1736 -0.9848 -0.0000
vn 0.9848 -0.1736 -0.0000
vn 0.1736 -0.0000 0.9848
vn 0.1737 -0.0000 0.9848
vn 0.3420 -0.0000 0.9397
vn 0.5000 -0.0000 0.8660
vn 0.6428 -0.0000 0.7660
vn 0.7660 -0.0000 0.6428
vn 0.8660 -0.0000 0.5000
vn 0.9397 -0.0000 0.3420
vn 0.9848 -0.0000 0.1736
vn 0.9848 -0.0000 0.1737
vn 0.9835 -0.0808 0.1616
vn 0.9835 -0.1617 0.0809
vn 0.9261 -0.3667 0.0887
vn 0.8512 -0.4914 0.1841
vn 0.8245 -0.5627 0.0595
vn 0.7506 -0.6013 0.2741
vn 0.7221 -0.6772 0.1413
vn 0.6272 -0.6929 0.3557
vn 0.5979 -0.7712 0.2188
vn 0.4852 -0.7634 0.4264
vn 0.4556 -0.8417 0.2896
vn 0.3279 -0.8111 0.4844
vn 0.2994 -0.8869 0.3518
vn 0.1609 -0.8341 0.5277
vn 0.1342 -0.9052 0.4033
vn 0.9383 -0.1932 0.2867
vn 0.9383 -0.2867 0.1932
vn 0.8647 -0.4030 0.2997
vn 0.7650 -0.5071 0.3971
vn 0.6418 -0.5960 0.4826
vn 0.4997 -0.6665 0.5532
vn 0.3423 -0.7170 0.6072
vn 0.1743 -0.7459 0.6429
vn 0.9261 -0.0887 0.3667
vn 0.8512 -0.1841 0.4914
vn 0.8245 -0.0594 0.5627
vn 0.7221 -0.1413 0.6772
vn 0.5545 -0.0743 0.8289
vn 0.4123 -0.1455 0.8994
vn 0.2038 -0.0712 0.9764
vn 0.0446 -0.1401 0.9891
vn 0.0951 -0.2728 0.9574
vn 0.1342 -0.4033 0.9052
vn 0.1608 -0.5277 0.8341
vn 0.1743 -0.6428 0.7459
vn 0.0950 -0.9574 0.2728
vn 0.0446 -0.9891 0.1401
vn 0.2038 -0.9764 0.0712
vn 0.4123 -0.8994 0.1455
vn 0.5545 -0.8289 0.0742
vn 0.3424 -0.6072 0.7170
vn 0.3279 -0.4844 0.8111
vn 0.2995 -0.3518 0.8869
vn 0.2575 -0.2124 0.9426
vn 0.5000 -0.5531 0.6664
vn 0.4852 -0.4264 0.7634
vn 0.4555 -0.2897 0.8418
vn 0.6418 -0.4826 0.5960
vn 0.6269 -0.3558 0.6931
vn 0.5979 -0.2188 0.7711
vn 0.7651 -0.3970 0.5070
vn 0.7506 -0.2740 0.6012
vn 0.8647 -0.2997 0.4030
vn 0.2575 -0.9426 0.2124
vn 0.9835 -0.1617 -0.0808
vn 0.9835 -0.0809 -0.1617
vn 0.9261 -0.0887 -0.3667
vn 0.8512 -0.1842 -0.4914
vn 0.8245 -0.0595 -0.5627
vn 0.7505 -0.2741 -0.6013
vn 0.7221 -0.1413 -0.6772
vn 0.6269 -0.3558 -0.6931
vn 0.5979 -0.2188 -0.7712
vn 0.4849 -0.4265 -0.7635
vn 0.4555 -0.2897 -0.8418
vn 0.3279 -0.4844 -0.8111
vn 0.2994 -0.3519 -0.8869
vn 0.1608 -0.5277 -0.8341
vn 0.1342 -0.4033 -0.9052
vn 0.9384 -0.2867 -0.1932
vn 0.9384 -0.1932 -0.2866
vn 0.8648 -0.2997 -0.4030
vn 0.7650 -0.3971 -0.5071
vn 0.6421 -0.4824 -0.5958
vn 0.5000 -0.5531 -0.6664
vn 0.3423 -0.6072 -0.7170
vn 0.1743 -0.6428 -0.7459
vn 0.9261 -0.3667 -0.0887
vn 0.8512 -0.4914 -0.1842
vn 0.8245 -0.5627 -0.0595
vn 0.7221 -0.6772 -0.1413
vn 0.5545 -0.8289 -0.0743
vn 0.4122 -0.8994 -0.1456
vn 0.2038 -0.9764 -0.0712
vn 0.0445 -0.9891 -0.1401
vn 0.0950 -0.9574 -0.2728
vn 0.1342 -0.9052 -0.4033
vn 0.1608 -0.8341 -0.5277
vn 0.1743 -0.7459 -0.6429
vn 0.0951 -0.2728 -0.9574
vn 0.0446 -0.1401 -0.9891
vn 0.2038 -0.0712 -0.9764
vn 0.4123 -0.1455 -0.8994
vn 0.5545 -0.0742 -0.8289
vn 0.3423 -0.7171 -0.6072
vn 0.3279 -0.8111 -0.4844
vn 0.2995 -0.8869 -0.3518
vn 0.2576 -0.9426 -0.2124
vn 0.4997 -0.6665 -0.5532
vn 0.4852 -0.7634 -0.4264
vn 0.4556 -0.8417 -0.2896
vn 0.6421 -0.5958 -0.4824
vn 0.6273 -0.6928 -0.3556
vn 0.5976 -0.7714 -0.2187
vn 0.7650 -0.5071 -0.3971
vn 0.7505 -0.6013 -0.2741
vn 0.8648 -0.4030 -0.2997
vn 0.2576 -0.2124 -0.9426
vt 3.492500 -0.193950
vt 2.301875 -0.193950
vt 3.492500 -0.249364
vt 1.111250 -0.193950
vt -1.270000 -0.249364
vt -0.079375 -0.193950
vt -1.270000 -0.193950
vt -1.270000 -0.138536
vt -0.079375 -0.138536
vt -1.270000 -0.083121
vt -0.079375 -0.083121
vt -1.270000 -0.027707
vt -0.079375 -0.027707
vt -1.270000 0.027707
vt -0.079375 0.027707
vt -1.270000 0.083121
vt -0.079375 0.083121
vt -1.270000 0.138536
vt -0.079375 0.138536
vt -1.270000 0.193950
vt -0.079375 0.193950
vt -1.270000 0.249364
vt 1.111250 0.193950
vt 3.492500 0.249364
vt 2.301875 0.193950
vt 3.492500 0.193950
vt 3.492500 0.138536
vt 2.301875 0.138536
vt 3.492500 0.083121
vt 2.301875 0.083121
vt 3.492500 0.027707
vt 2.301875 0.027707
vt 3.492500 -0.027707
vt 2.301875 -0.027707
vt 3.492500 -0.083121
vt 2.301875 -0.083121
vt 3.492500 -0.138536
vt 2.301875 -0.138536
vt 1.111250 -0.138536
vt 1.111250 -0.083121
vt 1.111250 -0.027707
vt 1.111250 0.027707
vt 1.111250 0.083121
vt 1.111250 0.138536
vt 0.317500 -0.249364
vt 2.222500 -0.249364
vt 1.270000 -0.193950
vt 2.222500 -0.193950
vt 1.270000 -0.138536
vt 2.222500 -0.138536
vt 1.270000 -0.083121
vt 2.222500 -0.083121
vt 1.270000 -0.027707
vt 2.222500 -0.027707
vt 1.270000 0.027707
vt 2.222500 0.027707
vt 1.270000 0.083121
vt 2.222500 0.083121
vt 1.270000 0.138536
vt 2.222500 0.138536
vt 1.270000 0.193950
vt 2.222500 0.193950
vt 2.222500 0.249364
vt 0.317500 0.249364
vt 0.317500 0.193950
vt 0.317500 0.138536
vt 0.317500 0.083121
vt 0.317500 0.027707
vt 0.317500 -0.027707
vt 0.317500 -0.083121
vt 0.317500 -0.138536
vt 0.317500 -0.193950
vt -3.492500 0.193950
vt -2.301875 0.193950
vt -3.492500 0.249364
vt -1.111250 0.193950
vt 1.270000 0.249364
vt 0.079375 0.193950
vt 0.079375 0.138536
vt 0.079375 0.083121
vt 0.079375 0.027707
vt 0.079375 -0.027707
vt 0.079375 -0.083121
vt 0.079375 -0.138536
vt 0.079375 -0.193950
vt 1.270000 -0.249364
vt -1.111250 -0.193950
vt -3.492500 -0.249364
vt -2.301875 -0.193950
vt -3.492500 -0.193950
vt -3.492500 -0.138536
vt -2.301875 -0.138536
vt -3.492500 -0.083121
vt -2.301875 -0.083121
vt -3.492500 -0.027707
vt -2.301875 -0.027707
vt -3.492500 0.027707
vt -2.301875 0.027707
vt -3.492500 0.083121
vt -2.301875 0.083121
vt -3.492500 0.138536
vt -2.301875 0.138536
vt -1.111250 0.138536
vt -1.111250 0.083121
vt -1.111250 0.027707
vt -1.111250 -0.027707
vt -1.111250 -0.083121
vt -1.111250 -0.138536
vt -0.261308 -0.056803
vt -0.247994 -0.025201
vt -0.303313 0.000000
vt -0.247994 0.025201
vt -0.261308 0.056803
vt -0.192674 0.075604
vt -0.215424 0.098823
vt -0.167337 0.131846
vt -0.137355 0.075604
vt -0.137355 0.126006
vt -0.082036 0.075604
vt -0.082036 0.126006
vt -0.026716 0.075604
vt -0.026716 0.126006
vt 0.028603 0.075604
vt 0.028603 0.126006
vt 0.083923 0.075604
vt 0.083923 0.126006
vt 0.139242 0.075604
vt 0.139242 0.126006
vt 0.187828 0.099205
vt 0.174837 0.162342
vt -0.215424 -0.098823
vt -0.192674 -0.075604
vt -0.192674 -0.025201
vt -0.137355 -0.075604
vt -0.137355 -0.025201
vt -0.082036 -0.075604
vt -0.082036 -0.025201
vt -0.026716 -0.075604
vt -0.026716 -0.025201
vt 0.028603 -0.075604
vt 0.028603 -0.025201
vt 0.083923 -0.075604
vt 0.083923 -0.025201
vt 0.139242 -0.075604
vt 0.139242 -0.025201
vt 0.194561 -0.033395
vt 0.194561 0.033395
vt -0.167337 -0.131846
vt -0.137355 -0.126006
vt -0.117966 -0.159422
vt -0.082036 -0.126006
vt -0.067856 -0.183804
vt -0.026716 -0.176796
vt -0.017374 -0.206553
vt 0.028603 -0.176687
vt 0.033198 -0.228906
vt 0.083923 -0.226811
vt 0.083596 -0.252024
vt 0.139242 -0.226811
vt 0.133520 -0.277214
vt 0.156407 -0.221775
vt 0.139242 -0.176470
vt 0.174837 -0.162342
vt 0.139242 -0.126006
vt 0.187828 -0.099205
vt 0.139242 0.025201
vt 0.083923 0.025201
vt 0.028603 0.025201
vt -0.026716 0.025201
vt -0.082036 0.025201
vt -0.137355 0.025201
vt -0.192674 0.025201
vt 0.139242 0.176470
vt 0.156407 0.221775
vt 0.139242 0.226811
vt 0.133520 0.277214
vt 0.083596 0.252024
vt 0.083923 0.226811
vt 0.033198 0.228906
vt 0.083923 0.176579
vt 0.028603 0.176687
vt -0.017374 0.206553
vt -0.026716 0.176796
vt -0.067856 0.183804
vt -0.117966 0.159422
vt -0.026716 -0.126006
vt 0.028603 -0.126006
vt 0.083923 -0.126006
vt 0.083923 -0.176579
vt 5.080000 4.762500
vt 0.317500 4.762500
vt 5.080000 0.317500
vt 0.317500 0.317500
vt -4.762500 0.193950
vt -3.651250 0.193950
vt -4.762500 0.249364
vt -2.540000 0.193950
vt -0.317500 0.249364
vt -1.428750 0.193950
vt -0.317500 0.193950
vt -0.317500 0.138536
vt -1.428750 0.138536
vt -0.317500 0.083121
vt -1.428750 0.083121
vt -0.317500 0.027707
vt -1.428750 0.027707
vt -0.317500 -0.027707
vt -1.428750 -0.027707
vt -0.317500 -0.083121
vt -1.428750 -0.083121
vt -0.317500 -0.138536
vt -1.428750 -0.138536
vt -0.317500 -0.193950
vt -1.428750 -0.193950
vt -0.317500 -0.249364
vt -2.540000 -0.193950
vt -4.762500 -0.249364
vt -3.651250 -0.193950
vt -4.762500 -0.193950
vt -4.762500 -0.138536
vt -3.651250 -0.138536
vt -4.762500 -0.083121
vt -3.651250 -0.083121
vt -4.762500 -0.027707
vt -3.651250 -0.027707
vt -4.762500 0.027707
vt -3.651250 0.027707
vt -4.762500 0.083121
vt -3.651250 0.083121
vt -4.762500 0.138536
vt -3.651250 0.138536
vt -2.540000 0.138536
vt -2.540000 0.083121
vt -2.540000 0.027707
vt -2.540000 -0.027707
vt -2.540000 -0.083121
vt -2.540000 -0.138536
vt 0.952500 4.762500
vt -0.952500 4.762500
vt 0.952500 0.317500
vt -0.952500 0.317500
vt -0.317500 4.762500
vt -5.080000 4.762500
vt -0.317500 0.317500
vt -5.080000 0.317500
vt 0.261308 0.056803
vt 0.247994 0.025201
vt 0.303313 0.000000
vt 0.247994 -0.025201
vt 0.261308 -0.056803
vt 0.192674 -0.075604
vt 0.215424 -0.098823
vt 0.167337 -0.131846
vt 0.137355 -0.075604
vt 0.137355 -0.126006
vt 0.082036 -0.075604
vt 0.082036 -0.126006
vt 0.026716 -0.075604
vt 0.026716 -0.126006
vt -0.028603 -0.075604
vt -0.028603 -0.126006
vt -0.083923 -0.075604
vt -0.083923 -0.126006
vt -0.139242 -0.075604
vt -0.139242 -0.126006
vt -0.187828 -0.099205
vt -0.174837 -0.162342
vt 0.215424 0.098823
vt 0.192674 0.025201
vt 0.192674 -0.025201
vt 0.137355 -0.025201
vt 0.082036 -0.025201
vt 0.026716 -0.025201
vt -0.028603 -0.025201
vt -0.083923 -0.025201
vt -0.139242 -0.025201
vt -0.194561 -0.033395
vt 0.192674 0.075604
vt 0.167337 0.131846
vt 0.137355 0.075604
vt 0.137355 0.126006
vt 0.082036 0.126006
vt 0.117966 0.159422
vt 0.067856 0.183804
vt 0.026716 0.176796
vt 0.017374 0.206553
vt -0.028603 0.176687
vt -0.033198 0.228906
vt -0.083923 0.226811
vt -0.083596 0.252024
vt -0.139242 0.226811
vt -0.133520 0.277214
vt -0.156407 0.221775
vt -0.139242 0.176470
vt -0.174837 0.162342
vt -0.139242 0.126006
vt -0.187828 0.099205
vt -0.139242 0.075604
vt -0.194561 0.033395
vt -0.139242 0.025201
vt -0.139242 -0.176470
vt -0.156407 -0.221775
vt -0.139242 -0.226811
vt -0.133520 -0.277214
vt -0.083596 -0.252024
vt -0.083923 -0.226811
vt -0.033198 -0.228906
vt -0.028603 -0.176687
vt 0.017374 -0.206553
vt 0.026716 -0.176796
vt 0.067856 -0.183804
vt 0.117966 -0.159422
vt -0.083923 0.025201
vt -0.083923 0.075604
vt -0.083923 0.126006
vt -0.083923 0.176579
vt -0.028603 0.025201
vt -0.028603 0.075604
vt -0.028603 0.126006
vt 0.026716 0.025201
vt 0.026716 0.075604
vt 0.026716 0.126006
vt 0.082036 0.025201
vt 0.082036 0.075604
vt 0.137355 0.025201
vt -0.083923 -0.176579
vt 0.000000 2.540000
vt 0.000000 0.000000
vt 1.587500 2.540000
vt 5.080000 0.000000
vt 3.492500 2.540000
vt 5.080000 2.540000
vt 3.492500 7.302500
vt 1.587500 7.302500
vt 1.270000 5.080000
vt -0.262367 5.075176
vt -0.208909 5.060852
vt -0.158750 5.037463
vt -0.113415 5.005719
vt -0.074281 4.966585
vt -0.042537 4.921250
vt -0.019148 4.871091
vt -0.004824 4.817633
vt 0.000000 4.762500
vt 1.270000 0.000000
vt 0.000000 0.317500
vt -0.004824 0.262367
vt -0.019148 0.208909
vt -0.042537 0.158750
vt -0.074281 0.113415
vt -0.113415 0.074281
vt -0.158750 0.042537
vt -0.208909 0.019148
vt -0.262367 0.004824
vt -0.317500 0.000000
vt 0.208909 5.060852
vt -1.270000 5.080000
vt 0.158750 5.037463
vt 0.113415 5.005719
vt 0.074281 4.966585
vt 0.042537 4.921250
vt 0.019148 4.871091
vt 0.004824 4.817633
vt -1.270000 0.000000
vt 0.004824 0.262367
vt 0.019148 0.208909
vt 0.042537 0.158750
vt 0.074281 0.113415
vt 0.113415 0.074281
vt 0.158750 0.042537
vt 0.208909 0.019148
vt 0.262367 0.004824
vt 0.317500 0.000000
s 1
usemtl 190,188,186.003
f 6/1/1 25/2/2 5/3/3
f 5/3/3 25/2/2 26/4/2
f 5/3/3 26/4/2 24/5/3
f 24/5/3 26/4/2 27/6/2
f 24/5/3 27/6/2 23/7/2
f 23/7/2 27/6/2 22/8/4
f 22/8/4 27/6/2 30/9/4
f 22/8/4 30/9/4 21/10/5
f 21/10/5 30/9/4 33/11/5
f 21/10/5 33/11/5 20/12/6
f 20/12/6 33/11/5 36/13/6
f 20/12/6 36/13/6 19/14/7
f 19/14/7 36/13/6 39/15/7
f 19/14/7 39/15/7 18/16/8
f 18/16/8 39/15/7 42/17/8
f 18/16/8 42/17/8 17/18/9
f 17/18/9 42/17/8 45/19/9
f 17/18/9 45/19/9 16/20/10
f 16/20/10 45/19/9 48/21/11
f 16/20/10 48/21/11 15/22/12
f 15/22/12 48/21/11 47/23/11
f 15/22/12 47/23/11 14/24/12
f 14/24/12 47/23/11 46/25/10
f 14/24/12 46/25/10 13/26/11
f 13/26/11 46/25/10 12/27/9
f 12/27/9 46/25/10 43/28/9
f 12/27/9 43/28/9 11/29/8
f 11/29/8 43/28/9 40/30/8
f 11/29/8 40/30/8 10/31/7
f 10/31/7 40/30/8 37/32/7
f 10/31/7 37/32/7 9/33/6
f 9/33/6 37/32/7 34/34/6
f 9/33/6 34/34/6 8/35/5
f 8/35/5 34/34/6 31/36/5
f 8/35/5 31/36/5 7/37/4
f 7/37/4 31/36/5 28/38/4
f 7/37/4 28/38/4 6/1/1
f 6/1/1 28/38/4 25/2/2
f 30/9/4 27/6/2 26/4/2
f 26/4/2 25/2/2 29/39/4
f 29/39/4 25/2/2 28/38/4
f 29/39/4 28/38/4 32/40/5
f 32/40/5 28/38/4 31/36/5
f 32/40/5 31/36/5 35/41/6
f 35/41/6 31/36/5 34/34/6
f 35/41/6 34/34/6 38/42/7
f 38/42/7 34/34/6 37/32/7
f 38/42/7 37/32/7 41/43/8
f 41/43/8 37/32/7 40/30/8
f 41/43/8 40/30/8 44/44/9
f 44/44/9 40/30/8 43/28/9
f 44/44/9 43/28/9 47/23/11
f 47/23/11 43/28/9 46/25/10
f 33/11/5 30/9/4 29/39/4
f 29/39/4 30/9/4 26/4/2
f 33/11/5 29/39/4 32/40/5
f 36/13/6 33/11/5 32/40/5
f 36/13/6 32/40/5 35/41/6
f 39/15/7 36/13/6 35/41/6
f 39/15/7 35/41/6 38/42/7
f 42/17/8 39/15/7 38/42/7
f 42/17/8 38/42/7 41/43/8
f 45/19/9 42/17/8 41/43/8
f 45/19/9 41/43/8 44/44/9
f 48/21/11 45/19/9 44/44/9
f 48/21/11 44/44/9 47/23/11
f 5/45/3 49/46/3 68/47/13
f 68/47/13 49/46/3 50/48/13
f 68/47/13 50/48/13 69/49/14
f 69/49/14 50/48/13 51/50/14
f 69/49/14 51/50/14 70/51/15
f 70/51/15 51/50/14 52/52/15
f 70/51/15 52/52/15 71/53/16
f 71/53/16 52/52/15 53/54/16
f 71/53/16 53/54/16 72/55/17
f 72/55/17 53/54/16 54/56/17
f 72/55/17 54/56/17 73/57/18
f 73/57/18 54/56/17 55/58/18
f 73/57/18 55/58/18 74/59/19
f 74/59/19 55/58/18 56/60/20
f 74/59/19 56/60/20 75/61/21
f 75/61/21 56/60/20 57/62/21
f 75/61/21 57/62/21 58/63/22
f 58/63/22 59/64/22 75/61/21
f 75/61/21 59/64/22 60/65/21
f 75/61/21 60/65/21 74/59/19
f 74/59/19 60/65/21 61/66/19
f 74/59/19 61/66/19 73/57/18
f 73/57/18 61/66/19 62/67/18
f 73/57/18 62/67/18 72/55/17
f 72/55/17 62/67/18 63/68/17
f 72/55/17 63/68/17 71/53/16
f 71/53/16 63/68/17 64/69/16
f 71/53/16 64/69/16 70/51/15
f 70/51/15 64/69/16 65/70/15
f 70/51/15 65/70/15 69/49/14
f 69/49/14 65/70/15 66/71/14
f 69/49/14 66/71/14 68/47/13
f 68/47/13 66/71/14 67/72/23
f 68/47/13 67/72/23 5/45/3
f 77/73/24 95/74/25 76/75/26
f 76/75/26 95/74/25 96/76/24
f 76/75/26 96/76/24 94/77/26
f 94/77/26 96/76/24 97/78/25
f 94/77/26 97/78/25 93/61/25
f 93/61/25 97/78/25 92/59/27
f 92/59/27 97/78/25 100/79/27
f 92/59/27 100/79/27 91/57/28
f 91/57/28 100/79/27 103/80/28
f 91/57/28 103/80/28 90/55/29
f 90/55/29 103/80/28 106/81/29
f 90/55/29 106/81/29 89/53/30
f 89/53/30 106/81/29 109/82/30
f 89/53/30 109/82/30 88/51/31
f 88/51/31 109/82/30 112/83/31
f 88/51/31 112/83/31 87/49/32
f 87/49/32 112/83/31 115/84/33
f 87/49/33 115/84/33 86/47/34
f 86/47/34 115/84/33 118/85/34
f 86/47/34 118/85/34 85/86/3
f 85/86/3 118/85/34 117/87/34
f 85/86/3 117/87/34 49/88/3
f 49/88/3 117/87/34 116/89/34
f 49/88/3 116/89/34 84/90/34
f 84/90/34 116/89/34 83/91/33
f 83/91/33 116/89/34 113/92/33
f 83/91/33 113/92/33 82/93/31
f 82/93/31 113/92/33 110/94/31
f 82/93/31 110/94/31 81/95/30
f 81/95/30 110/94/31 107/96/30
f 81/95/30 107/96/30 80/97/29
f 80/97/29 107/96/30 104/98/29
f 80/97/29 104/98/29 79/99/28
f 79/99/28 104/98/29 101/100/28
f 79/99/28 101/100/28 78/101/27
f 78/101/27 101/100/28 98/102/27
f 78/101/27 98/102/27 77/73/24
f 77/73/24 98/102/27 95/74/25
f 100/79/27 97/78/25 96/76/24
f 96/76/24 95/74/25 99/103/27
f 99/103/27 95/74/25 98/102/27
f 99/103/27 98/102/27 102/104/28
f 102/104/28 98/102/27 101/100/28
f 102/104/28 101/100/28 105/105/29
f 105/105/29 101/100/28 104/98/29
f 105/105/29 104/98/29 108/106/30
f 108/106/30 104/98/29 107/96/30
f 108/106/30 107/96/30 111/107/31
f 111/107/31 107/96/30 110/94/31
f 111/107/31 110/94/31 114/108/33
f 114/108/33 110/94/31 113/92/33
f 114/108/33 113/92/33 117/87/34
f 117/87/34 113/92/33 116/89/34
f 103/80/28 100/79/27 99/103/27
f 99/103/27 100/79/27 96/76/24
f 103/80/28 99/103/27 102/104/28
f 106/81/29 103/80/28 102/104/28
f 106/81/29 102/104/28 105/105/29
f 109/82/30 106/81/29 105/105/29
f 109/82/30 105/105/29 108/106/30
f 112/83/31 109/82/30 108/106/30
f 112/83/31 108/106/30 111/107/31
f 115/84/33 112/83/31 111/107/31
f 115/84/33 111/107/31 114/108/33
f 118/85/34 115/84/33 114/108/33
f 118/85/34 114/108/33 117/87/34
f 84/109/34 139/110/35 49/111/3
f 49/111/3 139/110/35 138/112/36
f 49/111/3 138/112/36 50/113/13
f 50/113/13 138/112/36 169/114/37
f 50/113/13 169/114/37 51/115/14
f 51/115/14 169/114/37 52/116/15
f 52/116/15 169/114/37 168/117/38
f 52/116/15 168/117/38 175/118/39
f 175/118/39 168/117/38 167/119/40
f 175/118/39 167/119/40 174/120/41
f 174/120/41 167/119/40 166/121/42
f 174/120/41 166/121/42 173/122/43
f 173/122/43 166/121/42 165/123/44
f 173/122/43 165/123/44 172/124/45
f 172/124/45 165/123/44 164/125/46
f 172/124/45 164/125/46 171/126/47
f 171/126/47 164/125/46 163/127/48
f 171/126/47 163/127/48 170/128/49
f 170/128/49 163/127/48 124/129/50
f 170/128/49 124/129/50 125/130/51
f 84/109/34 83/131/33 139/110/35
f 139/110/35 83/131/33 146/132/52
f 139/110/35 146/132/52 140/133/53
f 140/133/53 146/132/52 147/134/54
f 140/133/53 147/134/54 141/135/55
f 141/135/55 147/134/54 148/136/56
f 141/135/55 148/136/56 142/137/57
f 142/137/57 148/136/56 149/138/58
f 142/137/57 149/138/58 143/139/59
f 143/139/59 149/138/58 150/140/60
f 143/139/59 150/140/60 144/141/61
f 144/141/61 150/140/60 151/142/62
f 144/141/61 151/142/62 145/143/63
f 145/143/63 151/142/62 152/144/64
f 145/143/63 152/144/64 129/145/65
f 129/145/65 152/144/64 122/146/66
f 129/145/65 122/146/66 123/147/67
f 83/131/33 82/148/31 146/132/52
f 146/132/52 82/148/31 147/134/54
f 147/134/54 82/148/31 153/149/68
f 153/149/68 82/148/31 81/150/30
f 153/149/68 81/150/30 128/151/69
f 128/151/69 81/150/30 80/152/29
f 128/151/69 80/152/29 158/153/70
f 158/153/70 80/152/29 79/154/28
f 158/153/70 79/154/28 127/155/71
f 127/155/71 79/154/28 78/156/27
f 127/155/71 78/156/27 161/157/72
f 161/157/72 78/156/27 77/158/24
f 161/157/72 77/158/24 162/159/73
f 162/159/73 77/158/24 76/160/26
f 162/159/73 76/160/26 119/161/74
f 162/159/73 119/161/74 160/162/75
f 160/162/75 119/161/74 120/163/76
f 160/162/75 120/163/76 157/164/77
f 157/164/77 120/163/76 121/165/78
f 157/164/77 121/165/78 152/144/64
f 152/144/64 121/165/78 122/146/66
f 124/129/50 163/127/48 123/147/67
f 123/147/67 163/127/48 131/166/79
f 123/147/67 131/166/79 129/145/65
f 129/145/65 131/166/79 132/167/80
f 129/145/65 132/167/80 145/143/63
f 145/143/63 132/167/80 133/168/81
f 145/143/63 133/168/81 144/141/61
f 144/141/61 133/168/81 134/169/82
f 144/141/61 134/169/82 143/139/59
f 143/139/59 134/169/82 135/170/83
f 143/139/59 135/170/83 142/137/57
f 142/137/57 135/170/83 136/171/84
f 142/137/57 136/171/84 141/135/55
f 141/135/55 136/171/84 137/172/85
f 141/135/55 137/172/85 140/133/53
f 140/133/53 137/172/85 138/112/36
f 140/133/53 138/112/36 139/110/35
f 170/128/49 125/130/51 130/173/86
f 130/173/86 125/130/51 126/174/87
f 130/173/86 126/174/87 179/175/88
f 179/175/88 58/176/22 57/177/21
f 179/175/88 57/177/21 180/178/89
f 180/178/89 57/177/21 56/179/20
f 180/178/89 56/179/20 176/180/90
f 176/180/90 56/179/20 177/181/91
f 176/180/90 177/181/91 172/124/45
f 172/124/45 177/181/91 173/122/43
f 56/179/20 55/182/18 177/181/91
f 177/181/91 55/182/18 178/183/92
f 177/181/91 178/183/92 173/122/43
f 173/122/43 178/183/92 174/120/41
f 55/182/18 54/184/17 178/183/92
f 178/183/92 54/184/17 174/120/41
f 54/184/17 53/185/16 174/120/41
f 174/120/41 53/185/16 175/118/39
f 53/185/16 52/116/15 175/118/39
f 163/127/48 164/125/46 131/166/79
f 131/166/79 164/125/46 132/167/80
f 164/125/46 165/123/44 132/167/80
f 132/167/80 165/123/44 133/168/81
f 165/123/44 166/121/42 133/168/81
f 133/168/81 166/121/42 134/169/82
f 166/121/42 167/119/40 134/169/82
f 134/169/82 167/119/40 135/170/83
f 167/119/40 168/117/38 135/170/83
f 135/170/83 168/117/38 136/171/84
f 169/114/37 138/112/36 137/172/85
f 168/117/38 169/114/37 136/171/84
f 136/171/84 169/114/37 137/172/85
f 153/149/68 128/151/69 147/134/54
f 147/134/54 128/151/69 148/136/56
f 149/138/58 148/136/56 154/186/93
f 154/186/93 148/136/56 128/151/69
f 154/186/93 128/151/69 158/153/70
f 150/140/60 149/138/58 155/187/94
f 155/187/94 149/138/58 154/186/93
f 155/187/94 154/186/93 127/155/71
f 127/155/71 154/186/93 158/153/70
f 157/164/77 152/144/64 151/142/62
f 151/142/62 150/140/60 156/188/95
f 156/188/95 150/140/60 155/187/94
f 156/188/95 155/187/94 159/189/96
f 159/189/96 155/187/94 127/155/71
f 159/189/96 127/155/71 161/157/72
f 160/162/75 157/164/77 156/188/95
f 156/188/95 157/164/77 151/142/62
f 160/162/75 156/188/95 159/189/96
f 162/159/73 160/162/75 159/189/96
f 162/159/73 159/189/96 161/157/72
f 176/180/90 172/124/45 171/126/47
f 176/180/90 171/126/47 130/173/86
f 130/173/86 171/126/47 170/128/49
f 180/178/89 176/180/90 179/175/88
f 179/175/88 176/180/90 130/173/86
f 67/109/23 201/110/97 5/111/3
f 5/111/3 201/110/97 200/112/98
f 5/111/3 200/112/98 6/113/1
f 6/113/1 200/112/98 231/114/99
f 6/113/1 231/114/99 7/115/4
f 7/115/4 231/114/99 8/116/5
f 8/116/5 231/114/99 230/117/100
f 8/116/5 230/117/100 237/118/101
f 237/118/101 230/117/100 229/119/102
f 237/118/101 229/119/102 236/120/103
f 236/120/103 229/119/102 228/121/104
f 236/120/103 228/121/104 235/122/105
f 235/122/105 228/121/104 227/123/106
f 235/122/105 227/123/106 234/124/107
f 234/124/107 227/123/106 226/125/108
f 234/124/107 226/125/108 233/126/109
f 233/126/109 226/125/108 225/127/110
f 233/126/109 225/127/110 232/128/111
f 232/128/111 225/127/110 186/129/112
f 232/128/111 186/129/112 187/130/113
f 67/109/23 66/131/14 201/110/97
f 201/110/97 66/131/14 208/132/114
f 201/110/97 208/132/114 202/133/115
f 202/133/115 208/132/114 209/134/116
f 202/133/115 209/134/116 203/135/117
f 203/135/117 209/134/116 210/136/118
f 203/135/117 210/136/118 204/137/119
f 204/137/119 210/136/118 211/138/120
f 204/137/119 211/138/120 205/139/121
f 205/139/121 211/138/120 212/140/122
f 205/139/121 212/140/122 206/141/123
f 206/141/123 212/140/122 213/142/124
f 206/141/123 213/142/124 207/143/125
f 207/143/125 213/142/124 214/144/126
f 207/143/125 214/144/126 191/145/127
f 191/145/127 214/144/126 184/146/128
f 191/145/127 184/146/128 185/147/129
f 66/131/14 65/148/15 208/132/114
f 208/132/114 65/148/15 209/134/116
f 209/134/116 65/148/15 215/149/130
f 215/149/130 65/148/15 64/150/16
f 215/149/130 64/150/16 190/151/131
f 190/151/131 64/150/16 63/152/17
f 190/151/131 63/152/17 220/153/132
f 220/153/132 63/152/17 62/154/18
f 220/153/132 62/154/18 189/155/133
f 189/155/133 62/154/18 61/156/19
f 189/155/133 61/156/19 223/157/134
f 223/157/134 61/156/19 60/158/21
f 224/159/135 60/158/21 59/160/22
f 224/159/135 59/160/22 181/161/136
f 224/159/135 181/161/136 222/162/137
f 222/162/137 181/161/136 182/163/138
f 222/162/137 182/163/138 219/164/139
f 219/164/139 182/163/138 183/165/140
f 219/164/139 183/165/140 214/144/126
f 214/144/126 183/165/140 184/146/128
f 186/129/112 225/127/110 185/147/129
f 185/147/129 225/127/110 193/166/141
f 185/147/129 193/166/141 191/145/127
f 191/145/127 193/166/141 194/167/142
f 191/145/127 194/167/142 207/143/125
f 207/143/125 194/167/142 195/168/143
f 207/143/125 195/168/143 206/141/123
f 206/141/123 195/168/143 196/169/144
f 206/141/123 196/169/144 205/139/121
f 205/139/121 196/169/144 197/170/145
f 205/139/121 197/170/145 204/137/119
f 204/137/119 197/170/145 198/171/146
f 204/137/119 198/171/146 203/135/117
f 203/135/117 198/171/146 199/172/147
f 203/135/117 199/172/147 202/133/115
f 202/133/115 199/172/147 200/112/98
f 202/133/115 200/112/98 201/110/97
f 232/128/111 187/130/113 192/173/148
f 192/173/148 187/130/113 188/174/149
f 192/173/148 188/174/149 241/175/150
f 241/175/150 14/176/12 13/177/11
f 241/175/150 13/177/11 242/178/151
f 242/178/151 13/177/11 12/179/9
f 242/178/151 12/179/9 238/180/152
f 238/180/152 12/179/9 239/181/153
f 238/180/152 239/181/153 234/124/107
f 234/124/107 239/181/153 235/122/105
f 12/179/9 11/182/8 239/181/153
f 239/181/153 11/182/8 240/183/154
f 239/181/153 240/183/154 235/122/105
f 235/122/105 240/183/154 236/120/103
f 11/182/8 10/184/7 240/183/154
f 240/183/154 10/184/7 236/120/103
f 10/184/7 9/185/6 236/120/103
f 236/120/103 9/185/6 237/118/101
f 9/185/6 8/116/5 237/118/101
f 225/127/110 226/125/108 193/166/141
f 193/166/141 226/125/108 194/167/142
f 226/125/108 227/123/106 194/167/142
f 194/167/142 227/123/106 195/168/143
f 227/123/106 228/121/104 195/168/143
f 195/168/143 228/121/104 196/169/144
f 228/121/104 229/119/102 196/169/144
f 196/169/144 229/119/102 197/170/145
f 229/119/102 230/117/100 197/170/145
f 197/170/145 230/117/100 198/171/146
f 231/114/99 200/112/98 199/172/147
f 230/117/100 231/114/99 198/171/146
f 198/171/146 231/114/99 199/172/147
f 215/149/130 190/151/131 209/134/116
f 209/134/116 190/151/131 210/136/118
f 211/138/120 210/136/118 216/186/155
f 216/186/155 210/136/118 190/151/131
f 216/186/155 190/151/131 220/153/132
f 212/140/122 211/138/120 217/187/156
f 217/187/156 211/138/120 216/186/155
f 217/187/156 216/186/155 189/155/133
f 189/155/133 216/186/155 220/153/132
f 219/164/139 214/144/126 213/142/124
f 213/142/124 212/140/122 218/188/157
f 218/188/157 212/140/122 217/187/156
f 218/188/157 217/187/156 221/189/158
f 221/189/158 217/187/156 189/155/133
f 221/189/158 189/155/133 223/157/134
f 222/162/137 219/164/139 218/188/157
f 218/188/157 219/164/139 213/142/124
f 222/162/137 218/188/157 221/189/158
f 224/159/135 222/162/137 221/189/158
f 224/159/135 221/189/158 223/157/134
f 238/180/152 234/124/107 233/126/109
f 238/180/152 233/126/109 192/173/148
f 192/173/148 233/126/109 232/128/111
f 242/178/151 238/180/152 241/175/150
f 241/175/150 238/180/152 192/173/148
f 15/190/12 14/191/12 244/192/12
f 244/192/12 14/191/12 243/193/12
f 188/194/149 254/195/149 14/196/12
f 14/196/12 254/195/149 255/197/159
f 14/196/12 255/197/159 243/198/12
f 243/198/12 255/197/159 256/199/149
f 243/198/12 256/199/149 253/200/149
f 253/200/149 256/199/149 252/201/113
f 252/201/113 256/199/149 259/202/113
f 252/201/113 259/202/113 251/203/112
f 251/203/112 259/202/113 262/204/112
f 251/203/112 262/204/112 250/205/160
f 250/205/160 262/204/112 265/206/129
f 250/205/160 265/206/129 249/207/128
f 249/207/128 265/206/129 268/208/128
f 249/207/128 268/208/128 248/209/140
f 248/209/140 268/208/128 271/210/140
f 248/209/140 271/210/140 247/211/138
f 247/211/138 271/210/140 274/212/138
f 247/211/138 274/212/138 246/213/136
f 246/213/136 274/212/138 277/214/161
f 246/213/136 277/214/161 245/215/22
f 245/215/22 277/214/161 276/216/161
f 245/215/22 276/216/161 59/217/22
f 59/217/22 276/216/161 275/218/161
f 59/217/22 275/218/161 181/219/136
f 181/219/136 275/218/161 182/220/138
f 182/220/138 275/218/161 272/221/138
f 182/220/138 272/221/138 183/222/140
f 183/222/140 272/221/138 269/223/140
f 183/222/140 269/223/140 184/224/128
f 184/224/128 269/223/140 266/225/128
f 184/224/128 266/225/128 185/226/129
f 185/226/129 266/225/128 263/227/129
f 185/226/129 263/227/129 186/228/112
f 186/228/112 263/227/129 260/229/112
f 186/228/112 260/229/112 187/230/113
f 187/230/113 260/229/112 257/231/113
f 187/230/113 257/231/113 188/194/149
f 188/194/149 257/231/113 254/195/149
f 259/202/113 256/199/149 255/197/159
f 255/197/159 254/195/149 258/232/113
f 258/232/113 254/195/149 257/231/113
f 258/232/113 257/231/113 261/233/112
f 261/233/112 257/231/113 260/229/112
f 261/233/112 260/229/112 264/234/129
f 264/234/129 260/229/112 263/227/129
f 264/234/129 263/227/129 267/235/128
f 267/235/128 263/227/129 266/225/128
f 267/235/128 266/225/128 270/236/140
f 270/236/140 266/225/128 269/223/140
f 270/236/140 269/223/140 273/237/138
f 273/237/138 269/223/140 272/221/138
f 273/237/138 272/221/138 276/216/161
f 276/216/161 272/221/138 275/218/161
f 262/204/112 259/202/113 258/232/113
f 258/232/113 259/202/113 255/197/159
f 262/204/112 258/232/113 261/233/112
f 265/206/129 262/204/112 261/233/112
f 265/206/129 261/233/112 264/234/129
f 268/208/128 265/206/129 264/234/129
f 268/208/128 264/234/129 267/235/128
f 271/210/140 268/208/128 267/235/128
f 271/210/140 267/235/128 270/236/140
f 274/212/138 271/210/140 270/236/140
f 274/212/138 270/236/140 273/237/138
f 277/214/161 274/212/138 273/237/138
f 277/214/161 273/237/138 276/216/161
f 59/238/22 58/239/22 245/240/22
f 245/240/22 58/239/22 278/241/22
f 126/194/87 288/195/162 58/196/22
f 58/196/22 288/195/162 289/197/162
f 58/196/22 289/197/162 278/198/22
f 278/198/22 289/197/162 290/199/162
f 278/198/22 290/199/162 287/200/87
f 287/200/87 290/199/162 286/201/51
f 286/201/51 290/199/162 293/202/51
f 286/201/51 293/202/51 285/203/50
f 285/203/50 293/202/51 296/204/50
f 285/203/50 296/204/50 284/205/67
f 284/205/67 296/204/50 299/206/163
f 284/205/67 299/206/163 283/207/66
f 283/207/66 299/206/163 302/208/66
f 283/207/66 302/208/66 282/209/78
f 282/209/78 302/208/66 305/210/78
f 282/209/78 305/210/78 281/211/76
f 281/211/76 305/210/78 308/212/76
f 281/211/76 308/212/76 280/213/74
f 280/213/74 308/212/76 311/214/74
f 280/213/74 311/214/74 279/215/26
f 279/215/26 311/214/74 310/216/164
f 279/215/26 310/216/164 76/217/26
f 76/217/26 310/216/164 309/218/74
f 76/217/26 309/218/74 119/219/74
f 119/219/74 309/218/74 120/220/76
f 120/220/76 309/218/74 306/221/76
f 120/220/76 306/221/76 121/222/78
f 121/222/78 306/221/76 303/223/78
f 121/222/78 303/223/78 122/224/66
f 122/224/66 303/223/78 300/225/66
f 122/224/66 300/225/66 123/226/67
f 123/226/67 300/225/66 297/227/163
f 123/226/67 297/227/163 124/228/50
f 124/228/50 297/227/163 294/229/50
f 124/228/50 294/229/50 125/230/51
f 125/230/51 294/229/50 291/231/51
f 125/230/51 291/231/51 126/194/87
f 126/194/87 291/231/51 288/195/162
f 293/202/51 290/199/162 289/197/162
f 289/197/162 288/195/162 292/232/51
f 292/232/51 288/195/162 291/231/51
f 292/232/51 291/231/51 295/233/50
f 295/233/50 291/231/51 294/229/50
f 295/233/50 294/229/50 298/234/163
f 298/234/163 294/229/50 297/227/163
f 298/234/163 297/227/163 301/235/66
f 301/235/66 297/227/163 300/225/66
f 301/235/66 300/225/66 304/236/78
f 304/236/78 300/225/66 303/223/78
f 304/236/78 303/223/78 307/237/76
f 307/237/76 303/223/78 306/221/76
f 307/237/76 306/221/76 310/216/164
f 310/216/164 306/221/76 309/218/74
f 296/204/50 293/202/51 292/232/51
f 292/232/51 293/202/51 289/197/162
f 296/204/50 292/232/51 295/233/50
f 299/206/163 296/204/50 295/233/50
f 299/206/163 295/233/50 298/234/163
f 302/208/66 299/206/163 298/234/163
f 302/208/66 298/234/163 301/235/66
f 305/210/78 302/208/66 301/235/66
f 305/210/78 301/235/66 304/236/78
f 308/212/76 305/210/78 304/236/78
f 308/212/76 304/236/78 307/237/76
f 311/214/74 308/212/76 307/237/76
f 311/214/74 307/237/76 310/216/164
f 76/242/26 94/243/26 279/244/26
f 279/244/26 94/243/26 312/245/165
f 314/1/166 331/2/167 313/3/168
f 313/3/168 331/2/167 332/4/166
f 313/3/168 332/4/166 330/5/168
f 330/5/168 332/4/166 333/6/167
f 330/5/168 333/6/167 329/7/167
f 329/7/167 333/6/167 328/8/169
f 328/8/169 333/6/167 336/9/169
f 328/8/169 336/9/169 327/10/170
f 327/10/170 336/9/169 339/11/170
f 327/10/170 339/11/170 326/12/171
f 326/12/171 339/11/170 342/13/171
f 326/12/171 342/13/171 325/14/172
f 325/14/172 342/13/171 345/15/172
f 325/14/172 345/15/172 324/16/173
f 324/16/173 345/15/172 348/17/173
f 324/16/173 348/17/173 323/18/174
f 323/18/174 348/17/173 351/19/174
f 323/18/174 351/19/174 322/20/175
f 322/20/175 351/19/174 354/21/175
f 322/20/175 354/21/175 312/22/165
f 312/22/165 354/21/175 353/23/176
f 312/22/165 353/23/176 279/24/26
f 279/24/26 353/23/176 352/25/175
f 279/24/26 352/25/175 321/26/176
f 321/26/176 352/25/175 320/27/174
f 320/27/174 352/25/175 349/28/174
f 320/27/174 349/28/174 319/29/173
f 319/29/173 349/28/174 346/30/173
f 319/29/173 346/30/173 318/31/172
f 318/31/172 346/30/173 343/32/172
f 318/31/172 343/32/172 317/33/171
f 317/33/171 343/32/172 340/34/171
f 317/33/171 340/34/171 316/35/170
f 316/35/170 340/34/171 337/36/170
f 316/35/170 337/36/170 315/37/169
f 315/37/169 337/36/170 334/38/169
f 315/37/169 334/38/169 314/1/166
f 314/1/166 334/38/169 331/2/167
f 336/9/169 333/6/167 332/4/166
f 332/4/166 331/2/167 335/39/169
f 335/39/169 331/2/167 334/38/169
f 335/39/169 334/38/169 338/40/170
f 338/40/170 334/38/169 337/36/170
f 338/40/170 337/36/170 341/41/171
f 341/41/171 337/36/170 340/34/171
f 341/41/171 340/34/171 344/42/172
f 344/42/172 340/34/171 343/32/172
f 344/42/172 343/32/172 347/43/173
f 347/43/173 343/32/172 346/30/173
f 347/43/173 346/30/173 350/44/174
f 350/44/174 346/30/173 349/28/174
f 350/44/174 349/28/174 353/23/176
f 353/23/176 349/28/174 352/25/175
f 339/11/170 336/9/169 335/39/169
f 335/39/169 336/9/169 332/4/166
f 339/11/170 335/39/169 338/40/170
f 342/13/171 339/11/170 338/40/170
f 342/13/171 338/40/170 341/41/171
f 345/15/172 342/13/171 341/41/171
f 345/15/172 341/41/171 344/42/172
f 348/17/173 345/15/172 344/42/172
f 348/17/173 344/42/172 347/43/173
f 351/19/174 348/17/173 347/43/173
f 351/19/174 347/43/173 350/44/174
f 354/21/175 351/19/174 350/44/174
f 354/21/175 350/44/174 353/23/176
f 313/45/168 355/46/168 372/47/177
f 372/47/177 355/46/168 356/48/177
f 372/47/177 356/48/177 373/49/178
f 373/49/178 356/48/177 357/50/178
f 373/49/178 357/50/178 374/51/179
f 374/51/179 357/50/178 358/52/179
f 374/51/179 358/52/179 375/53/180
f 375/53/180 358/52/179 359/54/180
f 375/53/180 359/54/180 376/55/181
f 376/55/181 359/54/180 360/56/181
f 376/55/181 360/56/181 377/57/182
f 377/57/182 360/56/181 361/58/182
f 377/57/182 361/58/182 378/59/183
f 378/59/183 361/58/182 362/60/183
f 378/59/183 362/60/183 379/61/184
f 379/61/184 362/60/183 363/62/184
f 379/61/184 363/62/184 245/63/22
f 245/63/22 278/64/22 379/61/184
f 379/61/184 278/64/22 364/65/184
f 379/61/184 364/65/184 378/59/183
f 378/59/183 364/65/184 365/66/183
f 378/59/183 365/66/183 377/57/182
f 377/57/182 365/66/183 366/67/182
f 377/57/182 366/67/182 376/55/181
f 376/55/181 366/67/182 367/68/181
f 376/55/181 367/68/181 375/53/180
f 375/53/180 367/68/181 368/69/180
f 375/53/180 368/69/180 374/51/179
f 374/51/179 368/69/180 369/70/179
f 374/51/179 369/70/179 373/49/178
f 373/49/178 369/70/179 370/71/178
f 373/49/178 370/71/178 372/47/177
f 372/47/177 370/71/178 371/72/185
f 372/47/177 371/72/185 313/45/168
f 380/73/186 397/74/187 243/75/12
f 243/75/12 397/74/187 398/76/186
f 243/75/12 398/76/186 244/77/12
f 244/77/12 398/76/186 399/78/186
f 244/77/12 399/78/186 396/61/186
f 396/61/186 399/78/186 395/59/188
f 395/59/188 399/78/186 402/79/188
f 395/59/188 402/79/188 394/57/189
f 394/57/189 402/79/188 405/80/189
f 394/57/189 405/80/189 393/55/190
f 393/55/190 405/80/189 408/81/190
f 393/55/190 408/81/190 392/53/191
f 392/53/191 408/81/190 411/82/191
f 392/53/191 411/82/191 391/51/192
f 391/51/192 411/82/191 414/83/192
f 391/51/192 414/83/192 390/49/193
f 390/49/193 414/83/192 417/84/193
f 390/49/193 417/84/193 389/47/194
f 389/47/194 417/84/193 420/85/194
f 389/47/194 420/85/194 388/86/168
f 388/86/168 420/85/194 419/87/194
f 388/86/168 419/87/194 355/88/168
f 355/88/168 419/87/194 418/89/194
f 355/88/168 418/89/194 387/90/195
f 387/90/195 418/89/194 386/91/193
f 386/91/193 418/89/194 415/92/193
f 386/91/193 415/92/193 385/93/192
f 385/93/192 415/92/193 412/94/192
f 385/93/192 412/94/192 384/95/191
f 384/95/191 412/94/192 409/96/191
f 384/95/191 409/96/191 383/97/190
f 383/97/190 409/96/191 406/98/190
f 383/97/190 406/98/190 382/99/189
f 382/99/189 406/98/190 403/100/189
f 382/99/189 403/100/189 381/101/188
f 381/101/188 403/100/189 400/102/188
f 381/101/188 400/102/188 380/73/186
f 380/73/186 400/102/188 397/74/187
f 402/79/188 399/78/186 398/76/186
f 398/76/186 397/74/187 401/103/188
f 401/103/188 397/74/187 400/102/188
f 401/103/188 400/102/188 404/104/189
f 404/104/189 400/102/188 403/100/189
f 404/104/189 403/100/189 407/105/190
f 407/105/190 403/100/189 406/98/190
f 407/105/190 406/98/190 410/106/191
f 410/106/191 406/98/190 409/96/191
f 410/106/191 409/96/191 413/107/192
f 413/107/192 409/96/191 412/94/192
f 413/107/192 412/94/192 416/108/193
f 416/108/193 412/94/192 415/92/193
f 416/108/193 415/92/193 419/87/194
f 419/87/194 415/92/193 418/89/194
f 405/80/189 402/79/188 401/103/188
f 401/103/188 402/79/188 398/76/186
f 405/80/189 401/103/188 404/104/189
f 408/81/190 405/80/189 404/104/189
f 408/81/190 404/104/189 407/105/190
f 411/82/191 408/81/190 407/105/190
f 411/82/191 407/105/190 410/106/191
f 414/83/192 411/82/191 410/106/191
f 414/83/192 410/106/191 413/107/192
f 417/84/193 414/83/192 413/107/192
f 417/84/193 413/107/192 416/108/193
f 420/85/194 417/84/193 416/108/193
f 420/85/194 416/108/193 419/87/194
f 387/246/195 432/247/196 355/248/168
f 355/248/168 432/247/196 431/249/197
f 355/248/168 431/249/197 356/250/177
f 356/250/177 431/249/197 462/251/198
f 356/250/177 462/251/198 357/252/178
f 357/252/178 462/251/198 358/253/179
f 358/253/179 462/251/198 461/254/199
f 358/253/179 461/254/199 468/255/200
f 468/255/200 461/254/199 460/256/201
f 468/255/200 460/256/201 467/257/202
f 467/257/202 460/256/201 459/258/203
f 467/257/202 459/258/203 466/259/204
f 466/259/204 459/258/203 458/260/205
f 466/259/204 458/260/205 465/261/206
f 465/261/206 458/260/205 457/262/207
f 465/261/206 457/262/207 464/263/208
f 464/263/208 457/262/207 456/264/209
f 464/263/208 456/264/209 463/265/210
f 463/265/210 456/264/209 248/266/140
f 463/265/210 248/266/140 247/267/138
f 387/246/195 386/268/193 432/247/196
f 432/247/196 386/268/193 433/269/211
f 432/247/196 433/269/211 431/249/197
f 431/249/197 433/269/211 430/270/212
f 431/249/197 430/270/212 462/251/198
f 462/251/198 430/270/212 429/271/213
f 462/251/198 429/271/213 461/254/199
f 461/254/199 429/271/213 428/272/214
f 461/254/199 428/272/214 460/256/201
f 460/256/201 428/272/214 427/273/215
f 460/256/201 427/273/215 459/258/203
f 459/258/203 427/273/215 426/274/216
f 459/258/203 426/274/216 458/260/205
f 458/260/205 426/274/216 425/275/217
f 458/260/205 425/275/217 457/262/207
f 457/262/207 425/275/217 424/276/218
f 457/262/207 424/276/218 456/264/209
f 456/264/209 424/276/218 249/277/128
f 456/264/209 249/277/128 248/266/140
f 433/269/211 386/268/193 439/278/219
f 439/278/219 386/268/193 385/279/192
f 439/278/219 385/279/192 440/280/220
f 440/280/220 385/279/192 446/281/221
f 440/280/220 446/281/221 422/282/222
f 422/282/222 446/281/221 384/283/191
f 422/282/222 384/283/191 383/284/190
f 385/279/192 384/283/191 446/281/221
f 422/282/222 383/284/190 451/285/223
f 451/285/223 383/284/190 382/286/189
f 451/285/223 382/286/189 423/287/224
f 423/287/224 382/286/189 381/288/188
f 423/287/224 381/288/188 454/289/225
f 454/289/225 381/288/188 380/290/186
f 454/289/225 380/290/186 455/291/226
f 455/291/226 380/290/186 243/292/12
f 455/291/226 253/293/149 453/294/227
f 453/294/227 253/293/149 252/295/113
f 453/294/227 252/295/113 450/296/228
f 450/296/228 252/295/113 251/297/112
f 450/296/228 251/297/112 445/298/229
f 445/298/229 251/297/112 250/299/160
f 445/298/229 250/299/160 421/300/230
f 421/300/230 250/299/160 249/277/128
f 421/300/230 249/277/128 424/276/218
f 463/265/210 247/267/138 469/301/231
f 469/301/231 247/267/138 246/302/136
f 469/301/231 246/302/136 473/303/232
f 473/303/232 246/302/136 245/304/22
f 473/303/232 245/304/22 363/305/184
f 473/303/232 363/305/184 474/306/233
f 474/306/233 363/305/184 362/307/183
f 474/306/233 362/307/183 471/308/234
f 471/308/234 362/307/183 361/309/182
f 471/308/234 361/309/182 472/310/235
f 472/310/235 361/309/182 360/311/181
f 472/310/235 360/311/181 466/259/204
f 466/259/204 360/311/181 467/257/202
f 360/311/181 359/312/180 467/257/202
f 467/257/202 359/312/180 468/255/200
f 359/312/180 358/253/179 468/255/200
f 424/276/218 425/275/217 421/300/230
f 421/300/230 425/275/217 438/313/236
f 421/300/230 438/313/236 445/298/229
f 445/298/229 438/313/236 444/314/237
f 445/298/229 444/314/237 450/296/228
f 450/296/228 444/314/237 449/315/238
f 450/296/228 449/315/238 453/294/227
f 453/294/227 449/315/238 452/316/239
f 453/294/227 452/316/239 455/291/226
f 455/291/226 452/316/239 454/289/225
f 425/275/217 426/274/216 438/313/236
f 438/313/236 426/274/216 437/317/240
f 438/313/236 437/317/240 444/314/237
f 444/314/237 437/317/240 443/318/241
f 444/314/237 443/318/241 449/315/238
f 449/315/238 443/318/241 448/319/242
f 449/315/238 448/319/242 452/316/239
f 452/316/239 448/319/242 423/287/224
f 452/316/239 423/287/224 454/289/225
f 426/274/216 427/273/215 437/317/240
f 437/317/240 427/273/215 436/320/243
f 437/317/240 436/320/243 443/318/241
f 443/318/241 436/320/243 442/321/244
f 443/318/241 442/321/244 448/319/242
f 448/319/242 442/321/244 447/322/245
f 448/319/242 447/322/245 423/287/224
f 423/287/224 447/322/245 451/285/223
f 427/273/215 428/272/214 436/320/243
f 436/320/243 428/272/214 435/323/246
f 436/320/243 435/323/246 442/321/244
f 442/321/244 435/323/246 441/324/247
f 442/321/244 441/324/247 447/322/245
f 447/322/245 441/324/247 422/282/222
f 447/322/245 422/282/222 451/285/223
f 428/272/214 429/271/213 435/323/246
f 435/323/246 429/271/213 434/325/248
f 435/323/246 434/325/248 441/324/247
f 441/324/247 434/325/248 440/280/220
f 441/324/247 440/280/220 422/282/222
f 429/271/213 430/270/212 434/325/248
f 434/325/248 430/270/212 433/269/211
f 434/325/248 433/269/211 440/280/220
f 440/280/220 433/269/211 439/278/219
f 463/265/210 469/301/231 464/263/208
f 464/263/208 469/301/231 470/326/249
f 464/263/208 470/326/249 465/261/206
f 465/261/206 470/326/249 471/308/234
f 465/261/206 471/308/234 466/259/204
f 466/259/204 471/308/234 472/310/235
f 474/306/233 471/308/234 470/326/249
f 474/306/233 470/326/249 473/303/232
f 473/303/232 470/326/249 469/301/231
f 371/246/185 486/247/250 313/248/168
f 313/248/168 486/247/250 485/249/251
f 313/248/168 485/249/251 314/250/166
f 314/250/166 485/249/251 516/251/252
f 314/250/166 516/251/252 315/252/169
f 315/252/169 516/251/252 316/253/170
f 316/253/170 516/251/252 515/254/253
f 316/253/170 515/254/253 522/255/254
f 522/255/254 515/254/253 514/256/255
f 522/255/254 514/256/255 521/257/256
f 521/257/256 514/256/255 513/258/257
f 521/257/256 513/258/257 520/259/258
f 520/259/258 513/258/257 512/260/259
f 520/259/258 512/260/259 519/261/260
f 519/261/260 512/260/259 511/262/261
f 519/261/260 511/262/261 518/263/262
f 518/263/262 511/262/261 510/264/263
f 518/263/262 510/264/263 517/265/264
f 517/265/264 510/264/263 282/266/78
f 517/265/264 282/266/78 281/267/76
f 371/246/185 370/268/178 486/247/250
f 486/247/250 370/268/178 487/269/265
f 486/247/250 487/269/265 485/249/251
f 485/249/251 487/269/265 484/270/266
f 485/249/251 484/270/266 516/251/252
f 516/251/252 484/270/266 483/271/267
f 516/251/252 483/271/267 515/254/253
f 515/254/253 483/271/267 482/272/268
f 515/254/253 482/272/268 514/256/255
f 514/256/255 482/272/268 481/273/269
f 514/256/255 481/273/269 513/258/257
f 513/258/257 481/273/269 480/274/270
f 513/258/257 480/274/270 512/260/259
f 512/260/259 480/274/270 479/275/271
f 512/260/259 479/275/271 511/262/261
f 511/262/261 479/275/271 478/276/272
f 511/262/261 478/276/272 510/264/263
f 510/264/263 478/276/272 283/277/66
f 510/264/263 283/277/66 282/266/78
f 487/269/265 370/268/178 493/278/273
f 493/278/273 370/268/178 369/279/179
f 493/278/273 369/279/179 494/280/274
f 494/280/274 369/279/179 500/281/275
f 494/280/274 500/281/275 476/282/276
f 476/282/276 500/281/275 368/283/180
f 476/282/276 368/283/180 367/284/181
f 369/279/179 368/283/180 500/281/275
f 476/282/276 367/284/181 505/285/277
f 505/285/277 367/284/181 366/286/182
f 505/285/277 366/286/182 477/287/278
f 477/287/278 366/286/182 365/288/183
f 477/287/278 365/288/183 508/289/279
f 508/289/279 365/288/183 364/290/184
f 508/289/279 364/290/184 509/291/280
f 509/291/280 364/290/184 278/292/22
f 509/291/280 278/292/22 287/293/87
f 509/291/280 287/293/87 507/294/281
f 507/294/281 287/293/87 286/295/51
f 507/294/281 286/295/51 504/296/282
f 504/296/282 286/295/51 285/297/50
f 504/296/282 285/297/50 499/298/283
f 499/298/283 285/297/50 284/299/67
f 499/298/283 284/299/67 475/300/284
f 475/300/284 284/299/67 283/277/66
f 475/300/284 283/277/66 478/276/272
f 517/265/264 281/267/76 523/301/285
f 523/301/285 281/267/76 280/302/74
f 523/301/285 280/302/74 527/303/286
f 527/303/286 280/302/74 279/304/26
f 527/303/286 279/304/26 321/305/176
f 527/303/286 321/305/176 528/306/287
f 528/306/287 321/305/176 320/307/174
f 528/306/287 320/307/174 525/308/288
f 525/308/288 320/307/174 319/309/173
f 525/308/288 319/309/173 526/310/289
f 526/310/289 319/309/173 318/311/172
f 526/310/289 318/311/172 520/259/258
f 520/259/258 318/311/172 521/257/256
f 318/311/172 317/312/171 521/257/256
f 521/257/256 317/312/171 522/255/254
f 317/312/171 316/253/170 522/255/254
f 478/276/272 479/275/271 475/300/284
f 475/300/284 479/275/271 492/313/290
f 475/300/284 492/313/290 499/298/283
f 499/298/283 492/313/290 498/314/291
f 499/298/283 498/314/291 504/296/282
f 504/296/282 498/314/291 503/315/292
f 504/296/282 503/315/292 507/294/281
f 507/294/281 503/315/292 506/316/293
f 507/294/281 506/316/293 509/291/280
f 509/291/280 506/316/293 508/289/279
f 479/275/271 480/274/270 492/313/290
f 492/313/290 480/274/270 491/317/294
f 492/313/290 491/317/294 498/314/291
f 498/314/291 491/317/294 497/318/295
f 498/314/291 497/318/295 503/315/292
f 503/315/292 497/318/295 502/319/296
f 503/315/292 502/319/296 506/316/293
f 506/316/293 502/319/296 477/287/278
f 506/316/293 477/287/278 508/289/279
f 480/274/270 481/273/269 491/317/294
f 491/317/294 481/273/269 490/320/297
f 491/317/294 490/320/297 497/318/295
f 497/318/295 490/320/297 496/321/298
f 497/318/295 496/321/298 502/319/296
f 502/319/296 496/321/298 501/322/299
f 502/319/296 501/322/299 477/287/278
f 477/287/278 501/322/299 505/285/277
f 481/273/269 482/272/268 490/320/297
f 490/320/297 482/272/268 489/323/300
f 490/320/297 489/323/300 496/321/298
f 496/321/298 489/323/300 495/324/301
f 496/321/298 495/324/301 501/322/299
f 501/322/299 495/324/301 476/282/276
f 501/322/299 476/282/276 505/285/277
f 482/272/268 483/271/267 489/323/300
f 489/323/300 483/271/267 488/325/302
f 489/323/300 488/325/302 495/324/301
f 495/324/301 488/325/302 494/280/274
f 495/324/301 494/280/274 476/282/276
f 483/271/267 484/270/266 488/325/302
f 488/325/302 484/270/266 487/269/265
f 488/325/302 487/269/265 494/280/274
f 494/280/274 487/269/265 493/278/273
f 517/265/264 523/301/285 518/263/262
f 518/263/262 523/301/285 524/326/303
f 518/263/262 524/326/303 519/261/260
f 519/261/260 524/326/303 525/308/288
f 519/261/260 525/308/288 520/259/258
f 520/259/258 525/308/288 526/310/289
f 528/306/287 525/308/288 524/326/303
f 528/306/287 524/326/303 527/303/286
f 527/303/286 524/326/303 523/301/285
f 529/327/3 4/328/3 24/329/3
f 24/329/3 4/328/3 3/330/3
f 24/329/3 3/330/3 85/331/3
f 85/331/3 3/330/3 530/332/3
f 49/333/3 5/334/3 85/331/3
f 85/331/3 5/334/3 24/329/3
f 529/335/22 23/336/22 22/337/22
f 529/335/22 22/337/22 21/338/22
f 21/338/22 20/339/22 529/335/22
f 529/335/22 20/339/22 19/340/22
f 529/335/22 19/340/22 18/341/22
f 18/341/22 17/342/22 529/335/22
f 529/335/22 17/342/22 16/343/22
f 529/335/22 16/343/22 15/344/22
f 529/335/22 15/344/22 531/345/22
f 531/345/22 15/344/22 244/346/22
f 531/345/22 244/346/22 396/347/22
f 396/347/22 395/348/22 531/345/22
f 531/345/22 395/348/22 394/349/22
f 531/345/22 394/349/22 393/350/22
f 393/350/22 392/351/22 531/345/22
f 531/345/22 392/351/22 391/352/22
f 531/345/22 391/352/22 390/353/22
f 531/345/22 389/354/22 388/355/22
f 532/327/168 2/328/168 330/329/168
f 330/329/168 2/328/168 1/330/168
f 330/329/168 1/330/168 388/331/168
f 388/331/168 1/330/168 531/332/168
f 355/333/168 313/334/168 388/331/168
f 388/331/168 313/334/168 330/329/168
f 87/356/22 530/357/22 88/358/22
f 88/358/22 530/357/22 89/359/22
f 89/359/22 530/357/22 90/360/22
f 90/360/22 530/357/22 91/361/22
f 91/361/22 530/357/22 92/362/22
f 92/362/22 530/357/22 93/363/22
f 93/363/22 530/357/22 94/344/22
f 94/344/22 530/357/22 532/364/22
f 94/344/22 532/364/22 312/346/22
f 312/346/22 532/364/22 322/365/22
f 322/365/22 532/364/22 323/366/22
f 323/366/22 532/364/22 324/367/22
f 324/367/22 532/364/22 325/368/22
f 325/368/22 532/364/22 326/369/22
f 326/369/22 532/364/22 327/370/22
f 327/370/22 532/364/22 328/371/22
f 328/371/22 532/364/22 329/372/22
f 329/372/22 532/364/22 330/373/22
f 532/332/26 530/327/26 2/330/26
f 2/330/26 530/327/26 3/328/26
f 529/332/12 531/327/12 4/330/12
f 4/330/12 531/327/12 1/328/12
